<?xml version="1.0" standalone="no"?>
<!DOCTYPE svg PUBLIC "-//W3C//DTD SVG 20010904//EN"
 "http://www.w3.org/TR/2001/REC-SVG-20010904/DTD/svg10.dtd">
<svg version="1.0" xmlns="http://www.w3.org/2000/svg"
 width="700.000000pt" height="700.000000pt" viewBox="0 0 700.000000 700.000000"
 preserveAspectRatio="xMidYMid meet">
<metadata>
Created by potrace 1.14, written by Peter Selinger 2001-2017
</metadata>
<g transform="translate(0.000000,700.000000) scale(0.100000,-0.100000)"
fill="#000000" stroke="none">
<path d="M3819 6985 c-327 -62 -689 -275 -1009 -595 -406 -405 -575 -793 -504
-1161 29 -153 5 -246 -88 -345 -70 -74 -123 -111 -263 -186 -152 -81 -178
-111 -183 -209 -3 -55 1 -84 18 -132 25 -67 73 -145 96 -154 8 -3 19 -14 25
-25 17 -31 -5 -45 -77 -51 -54 -4 -71 -10 -93 -31 -50 -51 -29 -185 45 -282
l35 -45 -35 -42 c-60 -75 -89 -144 -94 -228 -4 -62 -1 -82 16 -116 23 -44 45
-53 127 -53 l43 0 4 -152 c4 -133 8 -163 32 -232 58 -171 151 -258 307 -286
74 -14 144 -9 349 25 458 76 658 74 827 -6 111 -53 214 -178 318 -387 223
-446 257 -979 93 -1491 -75 -233 -180 -452 -325 -675 -40 -61 -68 -112 -63
-114 17 -6 212 101 337 184 535 358 852 858 953 1504 11 74 28 171 37 215 23
112 22 405 -1 540 -78 462 -292 890 -665 1335 -53 63 -207 225 -342 360 -135
135 -275 281 -309 325 -274 347 -414 695 -444 1100 l-6 80 38 -100 c216 -561
725 -1159 1543 -1811 253 -201 739 -556 739 -539 0 3 -40 65 -88 138 -49 72
-141 218 -204 322 -508 840 -829 1629 -930 2283 -29 187 -31 539 -4 687 14 80
65 258 92 321 15 35 -216 54 -347 29z"/>
</g>
</svg>
