<svg width="48" height="48" viewBox="0 0 48 48" fill="none" xmlns="http://www.w3.org/2000/svg">
<circle cx="24" cy="24" r="23.5" stroke="#AAAAAA"/>
<path d="M21 23.5C20.7239 23.5 20.5 23.7239 20.5 24C20.5 24.2761 20.7239 24.5 21 24.5V23.5ZM36.3536 24.3536C36.5488 24.1583 36.5488 23.8417 36.3536 23.6464L33.1716 20.4645C32.9763 20.2692 32.6597 20.2692 32.4645 20.4645C32.2692 20.6597 32.2692 20.9763 32.4645 21.1716L35.2929 24L32.4645 26.8284C32.2692 27.0237 32.2692 27.3403 32.4645 27.5355C32.6597 27.7308 32.9763 27.7308 33.1716 27.5355L36.3536 24.3536ZM21 24.5H36V23.5H21V24.5Z" fill="#F3C166"/>
</svg>
