<svg width="48" height="48" viewBox="0 0 48 48" fill="none" xmlns="http://www.w3.org/2000/svg">
<circle r="23.5" transform="matrix(-1 0 0 1 24 24)" stroke="#AAAAAA"/>
<path d="M27 23.5C27.2761 23.5 27.5 23.7239 27.5 24C27.5 24.2761 27.2761 24.5 27 24.5V23.5ZM11.6464 24.3536C11.4512 24.1583 11.4512 23.8417 11.6464 23.6464L14.8284 20.4645C15.0237 20.2692 15.3403 20.2692 15.5355 20.4645C15.7308 20.6597 15.7308 20.9763 15.5355 21.1716L12.7071 24L15.5355 26.8284C15.7308 27.0237 15.7308 27.3403 15.5355 27.5355C15.3403 27.7308 15.0237 27.7308 14.8284 27.5355L11.6464 24.3536ZM27 24.5H12V23.5H27V24.5Z" fill="#F3C166"/>
</svg>
