<svg width="200" height="43" viewBox="0 0 200 43" fill="none" xmlns="http://www.w3.org/2000/svg">
<path fill-rule="evenodd" clip-rule="evenodd" d="M3.8527 0.268611C0.0391574 0.435736 -0.877032 0.725626 0.810715 1.23147C3.36211 1.99595 3.28163 1.54535 3.29131 15.1411C3.29712 23.395 3.20918 26.8662 2.9885 27.0896C2.81759 27.2626 2.19537 27.5715 1.60578 27.776C0.398665 28.1945 0.133736 28.9328 1.22553 28.8354C1.60578 28.8016 3.87676 28.7628 6.27245 28.7495C9.65265 28.7302 10.628 28.6434 10.628 28.3614C10.628 28.1309 10.0979 27.9361 9.17616 27.8284C8.08271 27.7004 7.56889 27.478 7.09462 26.9281C6.49452 26.2322 6.46852 26.0138 6.54153 22.2709L6.61813 18.3439L8.69221 18.4024C14.0859 18.5556 18.6564 16.371 20.4221 12.7963C21.3762 10.8648 21.4218 8.04847 20.5297 6.17632C19.5349 4.08935 17.283 2.12792 14.7505 1.14246C12.2311 0.162309 10.125 -0.00649112 3.8527 0.268611ZM31.9219 0.308788C31.9219 0.655595 29.4319 7.04153 27.6285 11.3196C26.917 13.0076 25.8623 15.5814 25.2846 17.0392C22.3762 24.3777 21.1226 26.716 19.6763 27.502C19.1113 27.8089 18.6489 28.1543 18.6486 28.2693C18.6481 28.3842 20.3278 28.4972 22.3811 28.5204C24.4345 28.5435 26.2597 28.5748 26.4372 28.5901C26.6145 28.6055 26.8061 28.478 26.8625 28.3067C26.9209 28.1301 26.5 27.9202 25.8902 27.8218C25.2989 27.7263 24.4746 27.3781 24.0584 27.0481C23.1112 26.2961 23.1839 25.7987 24.8283 21.7823C26.2381 18.3388 25.9004 18.5166 31.1268 18.4672C36.3491 18.4178 36.0537 18.2735 37.2426 21.4573C38.4812 24.7747 38.8913 26.333 38.6754 26.9007C38.5844 27.1399 38.0855 27.4769 37.5667 27.6496C35.7382 28.2584 36.6317 28.4785 40.9325 28.4785C44.1695 28.4785 45.2145 28.3948 45.131 28.1426C45.0702 27.9579 44.6233 27.7029 44.1382 27.5762C43.5431 27.4205 43.0293 26.9825 42.5578 26.2286C41.8324 25.0693 39.9093 20.2816 37.4658 13.5516C36.6859 11.4033 35.6854 8.70386 35.2426 7.55295C34.8002 6.40204 34.0427 4.2361 33.5599 2.74006C33.014 1.049 32.538 0.0197361 32.3019 0.0197361C32.0928 0.0197361 31.9219 0.149754 31.9219 0.308788ZM87.922 0.434063C86.0968 0.643598 83.7014 0.824395 82.5985 0.835834C81.0098 0.852574 80.5936 0.943531 80.5936 1.27527C80.5936 1.53056 80.8513 1.69378 81.2543 1.69378C81.6177 1.69378 82.194 1.92173 82.5347 2.1999C83.101 2.66278 83.1774 3.06511 83.4213 6.87329C83.7816 12.5017 83.5272 25.3958 83.0349 26.4418C82.7595 27.0274 82.3737 27.2888 81.4924 27.4858C80.8414 27.6315 80.3171 27.9116 80.3171 28.1136C80.3171 28.5823 93.7209 28.6326 96.7183 28.175C99.7462 27.7129 103.46 25.8436 105.472 23.7689C108.236 20.9188 109.524 17.3857 109.289 13.298C108.959 7.55602 105.338 3.17866 99.2169 1.12126C96.048 0.0560077 92.886 -0.136229 87.922 0.434063ZM123.181 0.660896C120.684 1.57632 119.861 2.04505 117.979 3.62563C115.911 5.3619 114.217 7.90589 113.464 10.4064C112.692 12.9718 112.84 17.1399 113.796 19.7428C115.191 23.5423 118.962 27.2986 122.462 28.377C124.987 29.1551 129.633 29.0949 132.068 28.2523C137.966 26.2116 141.794 20.7327 141.773 14.3621C141.753 8.49209 138.83 3.89432 133.497 1.34419C131.167 0.22983 130.933 0.176539 128.021 0.0911623C125.378 0.0135981 124.743 0.0883722 123.181 0.660896ZM152.495 0.329435C151.202 0.435737 148.807 0.617091 147.172 0.731764C145.536 0.846715 144.199 1.04258 144.199 1.16702C144.199 1.29145 144.706 1.53112 145.326 1.69936C147.282 2.23087 147.318 2.46468 147.266 14.375C147.212 26.7211 147.112 27.3513 145.133 27.8854C144.715 27.9981 144.325 28.2344 144.267 28.4105C144.191 28.642 145.216 28.7188 147.983 28.6878C150.084 28.6644 152.208 28.7433 152.702 28.863C153.421 29.0371 153.601 28.9947 153.601 28.651C153.601 28.3853 153.178 28.1061 152.494 27.9202C150.574 27.3985 150.434 26.9284 150.327 20.6094L150.233 15.0862L151.848 15.1191C154.657 15.1766 154.963 15.3275 156.312 17.3182C162.211 26.0247 166.244 29.5427 170.651 29.8259C172.129 29.9207 172.406 29.8674 172.406 29.4874C172.406 29.2394 172.188 29.0354 171.922 29.0338C170.747 29.0273 168.494 27.5932 166.559 25.6215C164.72 23.7477 160.577 18.076 159.331 15.7279L158.839 14.7999L159.607 14.505C161.05 13.9523 163.129 12.1284 163.75 10.8717C164.652 9.04675 164.798 7.60568 164.267 5.76311C163.628 3.54444 162.347 2.21051 159.878 1.19045C157.617 0.255777 155.867 0.0518222 152.495 0.329435ZM186.647 0.368496C185.768 2.88738 184.645 5.81752 183.468 8.66898C182.676 10.5872 181.158 14.291 180.096 16.8997C179.033 19.5084 177.653 22.6875 177.028 23.9645C175.925 26.2183 174.467 27.9205 173.641 27.9205C173.418 27.9205 173.236 28.0461 173.236 28.1995C173.236 28.3717 174.657 28.4785 176.946 28.4785C178.987 28.4785 180.854 28.5547 181.095 28.6479C181.375 28.7564 181.532 28.6652 181.532 28.3934C181.532 28.1156 181.146 27.9038 180.412 27.7785C178.932 27.5263 178.127 26.6625 178.306 25.5202C178.381 25.044 178.966 23.3314 179.607 21.7146C180.977 18.2562 180.632 18.425 186.233 18.4652C190.637 18.4968 190.958 18.5899 191.446 19.9797C191.66 20.5874 192.192 22.0538 192.629 23.2382C193.821 26.468 193.693 27.3527 191.97 27.7888C190.201 28.2369 191.494 28.4785 195.659 28.4785C199.004 28.4785 200.079 28.3951 199.996 28.1426C199.935 27.9579 199.493 27.7043 199.015 27.5793C198.536 27.454 197.84 26.9462 197.468 26.4504C196.638 25.3433 194.317 19.5056 190.675 9.3665C189.903 7.21814 189.028 4.83262 188.731 4.06535C188.433 3.29808 188.035 2.07379 187.845 1.34502C187.52 0.089488 186.916 -0.402124 186.647 0.368496ZM46.3022 0.840856C46.3022 1.20022 46.5773 1.40473 47.2258 1.52749C48.3774 1.7454 49.1937 2.61451 49.621 4.07707C50.085 5.6663 49.8624 25.1678 49.3654 26.4521C49.0944 27.1527 48.7742 27.4208 47.9357 27.6485C47.3414 27.81 46.8553 28.1024 46.8553 28.2983C46.8553 28.5742 47.9186 28.6504 51.5634 28.6365C55.4292 28.6214 56.2577 28.5486 56.1955 28.2299C56.1538 28.0165 55.5407 27.694 54.8333 27.5129C53.1782 27.0894 52.1632 26.4091 51.7772 25.4647C51.5717 24.9619 51.4852 22.0259 51.5161 16.6207C51.5626 8.54426 51.7058 6.06109 52.1171 6.21566C52.301 6.28486 55.1568 8.86763 57.9145 11.4591C69.5672 22.4087 72.1648 25.0649 73.8269 27.7297C75.3396 30.1554 75.4043 29.8398 75.3658 20.2478C75.3243 9.87988 75.6628 3.34439 76.2914 2.37652C76.5298 2.00934 77.1285 1.60338 77.6219 1.47448C78.1163 1.3453 78.5591 1.02891 78.6086 0.76943C78.6899 0.343664 78.2745 0.298744 74.2533 0.298744C70.6095 0.298744 69.8084 0.369891 69.8084 0.692703C69.8084 0.937393 70.2442 1.16088 70.9588 1.2828C72.4746 1.54117 73.2696 2.39605 73.6474 4.17305C74.0384 6.01199 74.0757 22.0614 73.6891 22.0614C73.156 22.0614 56.0443 5.3951 53.0637 1.97279L51.7271 0.438248L49.0145 0.383563C46.5486 0.333899 46.3022 0.375471 46.3022 0.840856ZM95.3569 1.55233C98.793 2.28695 101.484 4.05419 103.368 6.81386C104.834 8.96166 105.483 11.2314 105.483 14.2154C105.483 19.9839 103.042 24.27 98.5825 26.3332C97.0319 27.0506 96.3494 27.1901 93.8376 27.3011C91.3456 27.4113 90.5851 27.3357 88.7906 26.7981L86.6776 26.1653L86.6801 15.6732C86.6812 9.90275 86.7611 4.52069 86.8573 3.71296L87.0321 2.24454L88.445 1.84305C91.1429 1.07606 92.8025 1.00631 95.3569 1.55233ZM156.524 1.54507C159.132 2.32797 161.342 5.40849 161.336 8.25047C161.326 12.0441 158.7 14.0293 153.675 14.0404C152.27 14.0435 150.964 13.9146 150.771 13.7536C150.324 13.3803 150.531 2.44655 150.994 1.98032C151.302 1.67007 153.215 1.21947 154.45 1.16646C154.84 1.14944 155.774 1.31991 156.524 1.54507ZM12.7123 1.87988C15.7087 2.90998 17.6879 6.09067 17.6403 9.79868C17.5825 14.2846 14.5325 17.1413 9.79839 17.1438C8.80974 17.1444 7.65877 17.0557 7.24036 16.9471L6.47986 16.7496V9.24206C6.47986 0.657548 6.1635 1.50071 9.40348 1.44714C10.5852 1.42761 11.8946 1.59892 12.7123 1.87988ZM129.915 2.14661C130.507 2.35726 131.775 3.09385 132.733 3.78355C136.263 6.32531 138.395 10.939 138.388 16.0245C138.381 21.3789 136.65 24.5953 132.727 26.5439C131.209 27.2978 130.701 27.4066 128.698 27.4066C126.574 27.4066 126.239 27.3232 124.138 26.273C115.837 22.1227 113.312 10.3838 119.426 4.37031C122.176 1.66616 126.18 0.817141 129.915 2.14661ZM32.4103 8.87823C34.8082 14.6515 35.5703 16.818 35.2999 17.0908C35.007 17.3863 27.3852 17.3006 27.0871 16.9982C26.9892 16.8992 27.4278 15.4553 28.0613 13.7896C28.6952 12.1242 29.5008 9.99008 29.8511 9.04704C30.4866 7.33783 31.0358 6.15791 31.1962 6.15791C31.2424 6.15791 31.7889 7.38219 32.4103 8.87823ZM187.507 9.66392C188.926 13.0848 190.105 16.3911 190.105 16.9485C190.105 17.2381 189.312 17.3121 186.441 17.2903C184.425 17.275 182.508 17.181 182.181 17.0811C181.603 16.9053 181.649 16.7354 183.685 11.5255C184.84 8.56993 185.887 6.25528 186.013 6.38223C186.139 6.50946 186.812 7.98597 187.507 9.66392ZM4.62564 34.9256C3.63727 35.2141 2.88479 36.1114 2.88479 37.0017C2.88479 37.8306 3.91768 38.6952 5.37369 39.085C7.87613 39.7552 8.59846 40.4703 8.1123 41.7961C7.62586 43.1231 4.33582 42.8458 2.95504 41.3617C2.19786 40.5476 2.21528 40.4594 2.7515 42.3857C2.87843 42.8416 3.19093 42.8974 5.4879 42.8739C8.47817 42.8433 9.2453 42.4404 9.2453 40.8997C9.2453 39.7725 8.39244 38.9567 6.75641 38.5186C4.51751 37.919 3.947 37.4916 4.04379 36.4863C4.21054 34.7512 6.90159 34.401 8.30754 35.9314L8.96876 36.6512V35.8114C8.96876 35.0238 8.88884 34.9604 7.68559 34.7942C6.12616 34.5785 5.76196 34.5941 4.62564 34.9256ZM36.5958 35.2261C36.1975 35.9772 36.2974 36.3803 36.7647 35.9088C37.2033 35.4663 39.2337 35.05 40.1167 35.2216C40.589 35.3134 40.633 35.6292 40.633 38.9327V42.5433L39.9417 42.7372C39.5357 42.8513 40.1632 42.9295 41.4627 42.9267C42.6794 42.9242 43.4261 42.8594 43.1219 42.7827C42.8177 42.706 42.4773 42.5009 42.3656 42.3268C42.1211 41.946 42.0838 36.2419 42.3219 35.6161C42.5365 35.0517 44.4856 35.0227 45.522 35.5681C46.3185 35.9875 46.5787 35.8962 46.5784 35.1979C46.5784 34.8117 45.967 34.7562 41.7115 34.7562C37.4317 34.7562 36.8148 34.8129 36.5958 35.2261ZM116.683 34.8558C115.612 34.9716 115.195 35.1064 115.507 35.2358C115.93 35.411 115.991 35.8575 115.991 38.7731C115.991 41.5531 115.912 42.1898 115.517 42.5885C115.069 43.0402 115.235 43.0595 118.517 42.932C121.518 42.8154 122.155 42.7054 123.197 42.1245C124.587 41.3508 125.67 39.895 125.67 38.8018C125.67 37.7229 124.592 36.2559 123.25 35.5081C121.966 34.7933 119.514 34.5495 116.683 34.8558ZM191.641 34.8031C190.605 35.1008 188.974 36.3187 188.421 37.2073C187.627 38.4854 187.859 39.9851 189.046 41.2309C190.377 42.6287 191.23 42.9869 193.228 42.9869C198.388 42.9869 200.644 37.9729 196.615 35.4607C195.597 34.8257 192.834 34.4605 191.641 34.8031ZM75.6565 35.0827C76.2734 35.2478 76.4371 36.0134 76.4416 38.7505C76.446 41.4359 76.6916 42.0489 77.9797 42.5922C79.1846 43.0999 82.0029 43.0997 83.2081 42.5919C84.6663 41.9772 85.0396 41.1424 85.2199 38.0959C85.3612 35.7037 85.4436 35.3781 85.9591 35.1678C86.3717 34.9995 86.0598 34.9312 84.88 34.9312C83.6851 34.9312 83.385 34.9981 83.8081 35.1705C84.7578 35.5572 84.9165 37.4378 84.286 40.8294C83.9387 42.6993 79.7081 43.2096 78.09 41.5771C77.6335 41.1165 77.5522 40.6422 77.5558 38.4531C77.5602 35.8017 77.6656 35.3739 78.3813 35.0991C78.6094 35.0115 77.9872 34.9445 76.9985 34.9501C76.0099 34.9557 75.4059 35.0154 75.6565 35.0827ZM120.991 35.2141C124.49 36.2721 125.374 39.8364 122.589 41.6586C120.484 43.0355 117.775 42.9454 117.292 41.4825C117.148 41.047 117.121 39.5448 117.232 38.0608C117.406 35.7115 117.495 35.3884 118.023 35.1733C118.861 34.8324 119.769 34.8447 120.991 35.2141ZM155.814 35.4537C156.288 35.932 156.366 36.3803 156.362 38.5926C156.358 41.458 156.03 42.4434 154.982 42.7378C154.585 42.8491 155.291 42.9314 156.643 42.9314C157.999 42.9314 158.701 42.8494 158.302 42.7378C157.618 42.5461 157.61 42.5096 157.533 39.0716C157.465 36.0494 157.516 35.5536 157.931 35.2473C158.335 34.9493 158.168 34.8957 156.834 34.8957H155.26L155.814 35.4537ZM195.708 36.0815C197.117 37.1657 197.718 38.6023 197.322 39.9374C196.944 41.2111 195.69 42.341 194.381 42.5888C193.091 42.8329 190.548 41.6014 189.806 40.374C189.225 39.4126 189.11 37.6819 189.57 36.8156C190.51 35.0419 193.84 34.6438 195.708 36.0815Z" fill="white"/>
</svg>
