<svg width="16" height="16" viewBox="0 0 16 16" fill="none" xmlns="http://www.w3.org/2000/svg">
<path d="M10.7641 5.71727C10.7641 7.29546 9.47839 8.57585 7.89241 8.57585C6.30621 8.57585 5.02074 7.29546 5.02074 5.71727C5.02074 4.13863 6.30643 2.85869 7.89241 2.85869C9.47873 2.85858 10.7641 4.13852 10.7641 5.71727ZM13.7436 5.71727C13.7436 2.55965 11.1723 0 8.00011 0C4.82815 0 2.25665 2.55965 2.25665 5.71727C2.25665 7.10558 2.75426 8.37852 3.58118 9.36867L8.00508 15.7224L12.4937 9.27599C12.6549 9.07516 12.8025 8.86349 12.9357 8.64099L12.9811 8.57619H12.9737C13.4625 7.73471 13.7436 6.75912 13.7436 5.71727Z" fill="white"/>
</svg>
