<svg width="20" height="20" viewBox="0 0 20 20" fill="none" xmlns="http://www.w3.org/2000/svg">
<path d="M13.455 7.14659C13.455 9.11932 11.8479 10.7198 9.86542 10.7198C7.88266 10.7198 6.27582 9.11932 6.27582 7.14659C6.27582 5.17329 7.88294 3.57336 9.86542 3.57336C11.8483 3.57322 13.455 5.17314 13.455 7.14659ZM17.1794 7.14659C17.1794 3.19956 13.9653 0 10 0C6.03509 0 2.82071 3.19956 2.82071 7.14659C2.82071 8.88198 3.44273 10.4731 4.47637 11.7108L10.0062 19.653L15.617 11.595C15.8185 11.3439 16.0031 11.0794 16.1696 10.8012L16.2263 10.7202H16.217C16.828 9.66839 17.1794 8.4489 17.1794 7.14659Z" fill="white"/>
</svg>
