<svg width="94" height="59" viewBox="0 0 94 59" fill="none" xmlns="http://www.w3.org/2000/svg">
<path d="M28.24 15.52L27.5657 16.2585L27.5725 16.2647L27.5794 16.2707L28.24 15.52ZM19.76 15.52L20.4059 16.2834L20.4203 16.2712L20.4343 16.2585L19.76 15.52ZM16.4 21.44L17.3542 21.7393L17.3558 21.7341L16.4 21.44ZM16.32 37.28L15.3578 37.5523L15.3609 37.5632L15.3642 37.5741L16.32 37.28ZM19.76 43.36L20.4343 42.6214L20.4244 42.6126L19.76 43.36ZM28.24 43.36L27.5774 42.611L27.5715 42.6162L27.5657 42.6215L28.24 43.36ZM31.6 37.44L32.5542 37.7393L32.5558 37.7341L31.6 37.44ZM31.52 21.52L30.5627 21.809L30.5652 21.8172L30.5678 21.8254L31.52 21.52ZM38.72 51.12L38.0201 50.4057L38.0175 50.4083L38.72 51.12ZM9.28 51.12L9.98248 50.4083L9.97986 50.4057L9.28 51.12ZM9.28 7.52L9.97986 8.23429L9.98247 8.23171L9.28 7.52ZM38.72 7.52L38.0175 8.23172L38.0201 8.23428L38.72 7.52ZM28.9143 14.7815C27.5111 13.5003 25.8598 12.84 24 12.84V14.84C25.3402 14.84 26.5156 15.2997 27.5657 16.2585L28.9143 14.7815ZM24 12.84C22.1402 12.84 20.4889 13.5003 19.0857 14.7815L20.4343 16.2585C21.4844 15.2997 22.6598 14.84 24 14.84V12.84ZM19.1141 14.7566C17.5182 16.1069 16.3232 18.2893 15.4442 21.1459L17.3558 21.7341C18.1835 19.0441 19.2284 17.2797 20.4059 16.2834L19.1141 14.7566ZM15.4459 21.1407C14.5649 23.9488 14.12 26.7164 14.12 29.44H16.12C16.12 26.937 16.5285 24.3712 17.3541 21.7393L15.4459 21.1407ZM14.12 29.44C14.12 31.95 14.5381 34.6561 15.3578 37.5523L17.2822 37.0077C16.5019 34.2506 16.12 31.73 16.12 29.44H14.12ZM15.3642 37.5741C16.2461 40.4402 17.4664 42.6592 19.0956 44.1074L20.4244 42.6126C19.1736 41.5008 18.1006 39.6665 17.2758 36.9859L15.3642 37.5741ZM19.0857 44.0985C20.4889 45.3797 22.1402 46.04 24 46.04V44.04C22.6598 44.04 21.4844 43.5803 20.4343 42.6215L19.0857 44.0985ZM24 46.04C25.8598 46.04 27.5111 45.3797 28.9143 44.0985L27.5657 42.6215C26.5156 43.5803 25.3402 44.04 24 44.04V46.04ZM28.9026 44.109C30.4802 42.7134 31.6734 40.5468 32.5541 37.7393L30.6459 37.1407C29.82 39.7732 28.7731 41.5533 27.5774 42.611L28.9026 44.109ZM32.5558 37.7341C33.4339 34.8801 33.88 32.1406 33.88 29.52H31.88C31.88 31.9127 31.4728 34.4532 30.6442 37.1459L32.5558 37.7341ZM33.88 29.52C33.88 26.8926 33.4049 24.1223 32.4722 21.2146L30.5678 21.8254C31.4485 24.571 31.88 27.1341 31.88 29.52H33.88ZM32.4773 21.231C31.602 18.3315 30.4385 16.1227 28.9006 14.7693L27.5794 16.2707C28.7081 17.264 29.7313 19.0552 30.5627 21.809L32.4773 21.231ZM45.64 29.36C45.64 38.4991 43.0608 45.4669 38.0201 50.4057L39.4199 51.8343C44.9392 46.4264 47.64 38.8875 47.64 29.36H45.64ZM38.0175 50.4083C34.0957 54.2792 29.4405 56.2 24 56.2V58.2C29.9729 58.2 35.131 56.0675 39.4225 51.8317L38.0175 50.4083ZM24 56.2C18.5595 56.2 13.9043 54.2792 9.98247 50.4083L8.57753 51.8317C12.869 56.0675 18.0271 58.2 24 58.2V56.2ZM9.97986 50.4057C4.93923 45.4669 2.36 38.4991 2.36 29.36H0.36C0.36 38.8875 3.06077 46.4264 8.58014 51.8343L9.97986 50.4057ZM2.36 29.36C2.36 20.1656 4.9403 13.172 9.97986 8.23429L8.58014 6.80571C3.0597 12.2146 0.36 19.781 0.36 29.36H2.36ZM9.98247 8.23171C13.9043 4.36079 18.5595 2.44 24 2.44V0.439997C18.0271 0.439997 12.869 2.57254 8.57753 6.80829L9.98247 8.23171ZM24 2.44C29.4405 2.44 34.0957 4.36079 38.0175 8.23171L39.4225 6.80829C35.131 2.57254 29.9729 0.439997 24 0.439997V2.44ZM38.0201 8.23428C43.0597 13.172 45.64 20.1656 45.64 29.36H47.64C47.64 19.781 44.9403 12.2146 39.4199 6.80572L38.0201 8.23428ZM50.2088 37.76V36.76H49.1109L49.2131 37.8531L50.2088 37.76ZM64.3688 37.76L65.3676 37.7124L65.3223 36.76H64.3688V37.76ZM66.5287 43.12L67.2636 42.4417L67.25 42.427L67.2359 42.4129L66.5287 43.12ZM77.4088 42.88L78.1406 43.5614L78.1522 43.549L78.1634 43.5362L77.4088 42.88ZM76.9287 33.76L77.5747 32.9966L77.5656 32.989L76.9287 33.76ZM69.4888 32.56H68.4888V33.9474L69.805 33.5087L69.4888 32.56ZM69.4888 23.2L69.6239 22.2092L68.4888 22.0544V23.2H69.4888ZM75.1687 21.84L75.8172 22.6013L75.8224 22.5968L75.1687 21.84ZM67.7288 14.16L68.403 14.8985L68.4198 14.8832L68.4359 14.8671L67.7288 14.16ZM65.8887 18.88V19.88H66.8887V18.88H65.8887ZM53.0088 18.88L52.0102 18.8263L51.9535 19.88H53.0088V18.88ZM58.2088 6.64L58.9159 7.3471L58.9242 7.33875L58.9324 7.33021L58.2088 6.64ZM85.5688 6.16L86.2759 5.45287L86.2699 5.44697L85.5688 6.16ZM88.2887 23.04L87.4146 22.5543L87.4099 22.5629L88.2887 23.04ZM84.2087 27.12L83.7615 26.2256L81.6915 27.2606L83.8639 28.0587L84.2087 27.12ZM90.5287 32L91.3546 31.436L91.3489 31.4278L90.5287 32ZM88.0488 51.52L88.7559 52.2271L88.0488 51.52ZM56.8488 51.68L57.5307 50.9486L57.5249 50.9433L56.8488 51.68ZM50.2088 38.76H64.3688V36.76H50.2088V38.76ZM63.3699 37.8076C63.486 40.2463 64.2801 42.2856 65.8216 43.8271L67.2359 42.4129C66.1107 41.2878 65.4648 39.7537 65.3676 37.7124L63.3699 37.8076ZM65.7939 43.7983C67.3076 45.438 69.4158 46.2 71.9688 46.2V44.2C69.8283 44.2 68.3099 43.5753 67.2636 42.4417L65.7939 43.7983ZM71.9688 46.2C74.4221 46.2 76.5042 45.3191 78.1406 43.5614L76.6769 42.1986C75.4333 43.5342 73.8887 44.2 71.9688 44.2V46.2ZM78.1634 43.5362C79.3967 42.1179 80.0088 40.4147 80.0088 38.48H78.0088C78.0088 39.9586 77.5542 41.1888 76.6541 42.2238L78.1634 43.5362ZM80.0088 38.48C80.0088 36.2413 79.207 34.3778 77.5747 32.9966L76.2828 34.5234C77.4238 35.4889 78.0088 36.772 78.0088 38.48H80.0088ZM77.5656 32.989C76.1028 31.7806 74.1414 31.24 71.8088 31.24V33.24C73.8495 33.24 75.3014 33.7127 76.2919 34.531L77.5656 32.989ZM71.8088 31.24C70.8291 31.24 69.9428 31.3546 69.1725 31.6113L69.805 33.5087C70.3147 33.3388 70.9751 33.24 71.8088 33.24V31.24ZM70.4888 32.56V23.2H68.4888V32.56H70.4888ZM69.3536 24.1908C71.9059 24.5389 74.1081 24.0571 75.8172 22.6012L74.5203 21.0788C73.3494 22.0762 71.765 22.5011 69.6239 22.2092L69.3536 24.1908ZM75.8224 22.5968C77.2061 21.4018 77.9287 19.8764 77.9287 18.08H75.9287C75.9287 19.2703 75.4781 20.2515 74.5151 21.0832L75.8224 22.5968ZM77.9287 18.08C77.9287 16.2657 77.3766 14.7136 76.1959 13.5329L74.7816 14.9471C75.5209 15.6864 75.9287 16.6943 75.9287 18.08H77.9287ZM76.1959 13.5329C75.0089 12.3459 73.4258 11.8 71.5687 11.8V13.8C73.0184 13.8 74.0486 14.2141 74.7816 14.9471L76.1959 13.5329ZM71.5687 11.8C69.7304 11.8 68.1658 12.3087 67.0216 13.4529L68.4359 14.8671C69.105 14.198 70.1004 13.8 71.5687 13.8V11.8ZM67.0545 13.4215C65.5756 14.7718 64.8887 16.6392 64.8887 18.88H66.8887C66.8887 17.0675 67.4286 15.7882 68.403 14.8985L67.0545 13.4215ZM65.8887 17.88H53.0088V19.88H65.8887V17.88ZM54.0073 18.9337C54.2621 14.194 55.9078 10.3551 58.9159 7.3471L57.5016 5.93289C54.1097 9.32487 52.2887 13.646 52.0102 18.8263L54.0073 18.9337ZM58.9324 7.33021C62.0026 4.11145 66.4043 2.44 72.2887 2.44V0.439997C66.0132 0.439997 61.0283 2.23521 57.4851 5.94979L58.9324 7.33021ZM72.2887 2.44C77.7514 2.44 81.9001 3.955 84.8676 6.87302L86.2699 5.44697C82.8374 2.07166 78.1328 0.439997 72.2887 0.439997V2.44ZM84.8616 6.86711C87.5579 9.56341 88.8888 12.7506 88.8888 16.48H90.8888C90.8888 12.2094 89.3396 8.51659 86.2759 5.45289L84.8616 6.86711ZM88.8888 16.48C88.8888 18.7837 88.3894 20.7997 87.4146 22.5544L89.1629 23.5256C90.3214 21.4403 90.8888 19.083 90.8888 16.48H88.8888ZM87.4099 22.5629C86.4828 24.2708 85.2645 25.4741 83.7615 26.2256L84.656 28.0144C86.5664 27.0592 88.0681 25.5425 89.1676 23.5171L87.4099 22.5629ZM83.8639 28.0587C86.2841 28.9477 88.2252 30.446 89.7086 32.5722L91.3489 31.4278C89.6323 28.9673 87.36 27.2123 84.5536 26.1813L83.8639 28.0587ZM89.7029 32.564C91.0666 34.5608 91.7688 36.9705 91.7688 39.84H93.7688C93.7688 36.6295 92.9775 33.8126 91.3546 31.436L89.7029 32.564ZM91.7688 39.84C91.7688 44.2274 90.292 47.8625 87.3416 50.8129L88.7559 52.2271C92.0988 48.8842 93.7688 44.7326 93.7688 39.84H91.7688ZM87.3416 50.8129C83.7904 54.3641 78.7667 56.2 72.1288 56.2V58.2C79.1442 58.2 84.7337 56.2492 88.7559 52.2271L87.3416 50.8129ZM72.1288 56.2C66.0995 56.2 61.2634 54.4291 57.5307 50.9486L56.1668 52.4114C60.3274 56.2909 65.678 58.2 72.1288 58.2V56.2ZM57.5249 50.9433C53.8303 47.5523 51.7168 43.1496 51.2044 37.6669L49.2131 37.8531C49.7674 43.7838 52.0806 48.6611 56.1726 52.4167L57.5249 50.9433Z" fill="#F3C166"/>
</svg>
