<svg width="94" height="59" viewBox="0 0 94 59" fill="none" xmlns="http://www.w3.org/2000/svg">
<path d="M28.24 15.52L27.5657 16.2585L27.5725 16.2647L27.5794 16.2707L28.24 15.52ZM19.76 15.52L20.4059 16.2834L20.4203 16.2712L20.4343 16.2585L19.76 15.52ZM16.4 21.44L17.3542 21.7393L17.3558 21.7341L16.4 21.44ZM16.32 37.28L15.3578 37.5523L15.3609 37.5632L15.3642 37.5741L16.32 37.28ZM19.76 43.36L20.4343 42.6214L20.4244 42.6126L19.76 43.36ZM28.24 43.36L27.5774 42.611L27.5715 42.6162L27.5657 42.6215L28.24 43.36ZM31.6 37.44L32.5542 37.7393L32.5558 37.7341L31.6 37.44ZM31.52 21.52L30.5627 21.809L30.5652 21.8172L30.5678 21.8254L31.52 21.52ZM38.72 51.12L38.0201 50.4057L38.0175 50.4083L38.72 51.12ZM9.28 51.12L9.98248 50.4083L9.97986 50.4057L9.28 51.12ZM9.28 7.52L9.97986 8.23429L9.98247 8.23171L9.28 7.52ZM38.72 7.52L38.0175 8.23172L38.0201 8.23428L38.72 7.52ZM28.9143 14.7815C27.5111 13.5003 25.8598 12.84 24 12.84V14.84C25.3402 14.84 26.5156 15.2997 27.5657 16.2585L28.9143 14.7815ZM24 12.84C22.1402 12.84 20.4889 13.5003 19.0857 14.7815L20.4343 16.2585C21.4844 15.2997 22.6598 14.84 24 14.84V12.84ZM19.1141 14.7566C17.5182 16.1069 16.3232 18.2893 15.4442 21.1459L17.3558 21.7341C18.1835 19.0441 19.2284 17.2797 20.4059 16.2834L19.1141 14.7566ZM15.4459 21.1407C14.5649 23.9488 14.12 26.7164 14.12 29.44H16.12C16.12 26.937 16.5285 24.3712 17.3541 21.7393L15.4459 21.1407ZM14.12 29.44C14.12 31.95 14.5381 34.6561 15.3578 37.5523L17.2822 37.0077C16.5019 34.2506 16.12 31.73 16.12 29.44H14.12ZM15.3642 37.5741C16.2461 40.4402 17.4664 42.6592 19.0956 44.1074L20.4244 42.6126C19.1736 41.5008 18.1006 39.6665 17.2758 36.9859L15.3642 37.5741ZM19.0857 44.0985C20.4889 45.3797 22.1402 46.04 24 46.04V44.04C22.6598 44.04 21.4844 43.5803 20.4343 42.6215L19.0857 44.0985ZM24 46.04C25.8598 46.04 27.5111 45.3797 28.9143 44.0985L27.5657 42.6215C26.5156 43.5803 25.3402 44.04 24 44.04V46.04ZM28.9026 44.109C30.4802 42.7134 31.6734 40.5468 32.5541 37.7393L30.6459 37.1407C29.82 39.7732 28.7731 41.5533 27.5774 42.611L28.9026 44.109ZM32.5558 37.7341C33.4339 34.8801 33.88 32.1406 33.88 29.52H31.88C31.88 31.9127 31.4728 34.4532 30.6442 37.1459L32.5558 37.7341ZM33.88 29.52C33.88 26.8926 33.4049 24.1223 32.4722 21.2146L30.5678 21.8254C31.4485 24.571 31.88 27.1341 31.88 29.52H33.88ZM32.4773 21.231C31.602 18.3315 30.4385 16.1227 28.9006 14.7693L27.5794 16.2707C28.7081 17.264 29.7313 19.0552 30.5627 21.809L32.4773 21.231ZM45.64 29.36C45.64 38.4991 43.0608 45.4669 38.0201 50.4057L39.4199 51.8343C44.9392 46.4264 47.64 38.8875 47.64 29.36H45.64ZM38.0175 50.4083C34.0957 54.2792 29.4405 56.2 24 56.2V58.2C29.9729 58.2 35.131 56.0675 39.4225 51.8317L38.0175 50.4083ZM24 56.2C18.5595 56.2 13.9043 54.2792 9.98247 50.4083L8.57753 51.8317C12.869 56.0675 18.0271 58.2 24 58.2V56.2ZM9.97986 50.4057C4.93923 45.4669 2.36 38.4991 2.36 29.36H0.36C0.36 38.8875 3.06077 46.4264 8.58014 51.8343L9.97986 50.4057ZM2.36 29.36C2.36 20.1656 4.9403 13.172 9.97986 8.23429L8.58014 6.80571C3.0597 12.2146 0.36 19.781 0.36 29.36H2.36ZM9.98247 8.23171C13.9043 4.36079 18.5595 2.44 24 2.44V0.439997C18.0271 0.439997 12.869 2.57254 8.57753 6.80829L9.98247 8.23171ZM24 2.44C29.4405 2.44 34.0957 4.36079 38.0175 8.23171L39.4225 6.80829C35.131 2.57254 29.9729 0.439997 24 0.439997V2.44ZM38.0201 8.23428C43.0597 13.172 45.64 20.1656 45.64 29.36H47.64C47.64 19.781 44.9403 12.2146 39.4199 6.80572L38.0201 8.23428ZM92.8488 44.24H93.8488V43.24H92.8488V44.24ZM92.8488 56V57H93.8488V56H92.8488ZM50.0488 56L49.3255 55.3094L47.7113 57H50.0488V56ZM63.5688 41.84L62.8466 41.1483L62.8455 41.1494L63.5688 41.84ZM74.5287 28.32L73.6876 27.7792L73.6835 27.7856L73.6795 27.7921L74.5287 28.32ZM75.8088 14.88L75.0654 15.549L75.0688 15.5527L75.8088 14.88ZM67.2487 15.44L68.0351 16.0578L68.0381 16.0539L67.2487 15.44ZM65.3288 22V23H66.2924L66.3281 22.037L65.3288 22ZM51.0088 22L50.0088 21.9911L49.9998 23H51.0088V22ZM56.9287 7.2L57.6359 7.90711L56.9287 7.2ZM84.3688 35.92L85.0492 36.6528L85.0495 36.6525L84.3688 35.92ZM75.4088 44.24L74.7283 43.5072L72.8622 45.24H75.4088V44.24ZM91.8488 44.24V56H93.8488V44.24H91.8488ZM92.8488 55H50.0488V57H92.8488V55ZM50.772 56.6906L64.292 42.5306L62.8455 41.1494L49.3255 55.3094L50.772 56.6906ZM64.2909 42.5317C69.1705 37.4376 72.8747 32.8751 75.378 28.8479L73.6795 27.7921C71.2762 31.6582 67.6736 36.1091 62.8466 41.1483L64.2909 42.5317ZM75.3699 28.8608C77.355 25.7729 78.4088 22.8125 78.4088 20H76.4088C76.4088 22.3075 75.5425 24.8938 73.6876 27.7792L75.3699 28.8608ZM78.4088 20C78.4088 17.6136 77.8407 15.6286 76.5487 14.2073L75.0688 15.5527C75.9101 16.4781 76.4088 17.9064 76.4088 20H78.4088ZM76.552 14.211C75.3728 12.9007 73.778 12.28 71.8887 12.28V14.28C73.3061 14.28 74.3247 14.7259 75.0655 15.549L76.552 14.211ZM71.8887 12.28C69.6359 12.28 67.786 13.1204 66.4594 14.8261L68.0381 16.0539C68.9515 14.8796 70.195 14.28 71.8887 14.28V12.28ZM66.4624 14.8222C65.1066 16.5477 64.4401 18.9748 64.3294 21.963L66.3281 22.037C66.4307 19.2652 67.0442 17.3189 68.0351 16.0578L66.4624 14.8222ZM65.3288 21H51.0088V23H65.3288V21ZM52.0087 22.0089C52.0599 16.2732 53.9445 11.5985 57.6359 7.90711L56.2216 6.49289C52.1263 10.5882 50.0642 15.7801 50.0088 21.9911L52.0087 22.0089ZM57.6359 7.90711C61.26 4.28293 66.0311 2.44 72.0488 2.44V0.439997C65.5864 0.439997 60.2775 2.43707 56.2216 6.49289L57.6359 7.90711ZM72.0488 2.44C78.1922 2.44 82.9289 4.21434 86.3816 7.6671L87.7959 6.25289C83.8886 2.34565 78.5986 0.439997 72.0488 0.439997V2.44ZM86.3816 7.6671C89.6454 10.9309 91.2887 15.0426 91.2887 20.08H93.2887C93.2887 14.5573 91.4654 9.92247 87.7959 6.25289L86.3816 7.6671ZM91.2887 20.08C91.2887 25.3835 88.8239 30.4148 83.688 35.1875L85.0495 36.6525C90.4736 31.6119 93.2887 26.0832 93.2887 20.08H91.2887ZM83.6883 35.1872L74.7283 43.5072L76.0892 44.9728L85.0492 36.6528L83.6883 35.1872ZM75.4088 45.24H92.8488V43.24H75.4088V45.24Z" fill="#F3C166"/>
</svg>
