<?xml version="1.0" encoding="UTF-8"?>
<svg xmlns="http://www.w3.org/2000/svg" xmlns:xlink="http://www.w3.org/1999/xlink" width="30pt" height="30pt" viewBox="0 0 30 30" version="1.1">
<g id="surface1">
<path style=" stroke:none;fill-rule:nonzero;fill:rgb(13.72549%,12.156863%,12.54902%);fill-opacity:1;" d="M 22.5 18.75 C 22.207031 18.75 21.925781 18.648438 21.699219 18.460938 L 15 12.863281 L 8.289062 18.261719 C 8.027344 18.472656 7.699219 18.570312 7.367188 18.535156 C 7.035156 18.5 6.734375 18.335938 6.523438 18.074219 C 6.316406 17.816406 6.21875 17.484375 6.253906 17.15625 C 6.289062 16.824219 6.453125 16.519531 6.710938 16.3125 L 14.210938 10.273438 C 14.671875 9.894531 15.339844 9.894531 15.800781 10.273438 L 23.300781 16.523438 C 23.554688 16.738281 23.714844 17.042969 23.746094 17.371094 C 23.777344 17.703125 23.675781 18.03125 23.460938 18.289062 C 23.226562 18.578125 22.875 18.746094 22.5 18.75 Z M 22.5 18.75 "/>
</g>
</svg>
