<svg width="115" height="40" viewBox="0 0 115 40" fill="none" xmlns="http://www.w3.org/2000/svg">
<path fill-rule="evenodd" clip-rule="evenodd" d="M0.48206 0.494942C-0.000723267 0.981241 -0.198641 12.8299 0.255922 14.023C0.453459 14.5419 1.37326 14.6306 6.54812 14.6306H12.6088V20.1908V25.7506L6.60265 25.8566L0.596463 25.9623V32.8765V39.7907H19.8544H39.1123L39.2172 33.5487L39.3221 27.3067H45.0232H50.7243L50.8291 33.5487L50.934 39.7907L57.8936 39.8955L64.8531 40V33.6535V27.3067H70.3731H75.8931L75.9979 33.5487L76.1028 39.7907H95.5514H115V32.8765V25.9623L108.808 25.8566L102.617 25.7514L102.516 12.9885L102.416 0.226056L89.6859 0.124648C80.6091 0.0524328 76.8064 0.148848 76.4342 0.459987C76.0311 0.796862 75.9121 2.33181 75.9121 7.18712V13.4783H70.3918H64.871L64.7669 6.85217L64.6624 0.226056H57.7982H50.934L50.8295 6.66011L50.725 13.0942H44.442H38.159V19.4322V25.7702H32.4388H26.7186V13.363C26.7186 4.22515 26.5981 0.834506 26.261 0.494942C25.6058 -0.164981 1.13721 -0.164981 0.48206 0.494942ZM88.4965 20.2004V25.7702H82.967H77.4375V20.2004V14.6306H82.967H88.4965V20.2004Z" fill="black"/>
</svg>
