<svg width="46" height="40" viewBox="0 0 46 40" fill="none" xmlns="http://www.w3.org/2000/svg">
<path fill-rule="evenodd" clip-rule="evenodd" d="M16.273 0.345298C12.588 0.767982 7.16985 2.18642 4.54332 3.41617C2.51731 4.36449 2.3217 4.55985 1.80897 6.14412C0.441443 10.3692 0 13.7433 0 19.9725C0 26.2018 0.441443 29.5759 1.80897 33.801C2.3217 35.3853 2.51731 35.5806 4.54332 36.5289C8.84713 38.544 16.5898 40 23 40C29.4102 40 37.1529 38.544 41.4567 36.5289C43.4827 35.5806 43.6783 35.3853 44.191 33.801C45.5586 29.5759 46 26.2018 46 19.9725C46 13.7433 45.5586 10.3692 44.191 6.14412C43.6783 4.55985 43.4827 4.36449 41.4567 3.41617C35.4349 0.59687 25.0843 -0.66521 16.273 0.345298ZM28.9604 6.47475C30.7718 7.01303 33.0426 8.234 34.3388 9.36679C34.9295 9.88328 34.8291 10.0533 32.6117 12.289L30.2573 14.6628L28.6527 13.7222C23.2486 10.5537 16.4384 15.6298 18.0279 21.6415C19.2858 26.3996 24.5098 28.6522 28.6527 26.2229L30.2573 25.2823L32.6117 27.6561C35.2572 30.3232 35.2702 30.1581 32.2605 32.0277C28.7633 34.1998 23.8885 34.5733 19.7392 32.9872C16.9108 31.9057 13.861 29.0127 12.3829 26.0089C11.3072 23.8231 11.2352 23.4447 11.2352 19.9799C11.2352 16.7046 11.3423 16.0542 12.1764 14.2742C13.2082 12.0719 15.7445 9.14684 17.6374 7.97646C20.7563 6.04785 25.4351 5.42735 28.9604 6.47475Z" fill="black"/>
</svg>
