<svg width="40" height="40" viewBox="0 0 40 40" fill="none" xmlns="http://www.w3.org/2000/svg">
<path fill-rule="evenodd" clip-rule="evenodd" d="M17.2977 0.166596C12.9352 0.649836 8.41086 3.02083 5.22667 6.49229C3.00504 8.91435 1.61802 11.3829 0.616737 14.6966C-0.00629775 16.7587 -0.0808406 17.5896 0.0610838 20.8753C0.251184 25.2762 0.933788 27.6014 2.95068 30.719C5.5102 34.675 9.23766 37.6076 13.7555 39.2203C16.6685 40.2599 23.3207 40.2599 26.2338 39.2203C32.3241 37.0467 36.8979 32.5417 38.9659 26.6801C40.0671 23.5595 40.3321 18.4504 39.5509 15.3997C38.0616 9.581 34.0533 4.58145 28.9212 2.14053C24.905 0.230334 21.6756 -0.31827 17.2977 0.166596ZM24.4112 4.86502C27.028 5.63215 29.2562 7.02041 31.2909 9.15141C37.3908 15.5399 37.2921 25.0616 31.0624 31.2071C26.5661 35.6421 20.4344 36.9589 14.4215 34.7797C12.805 34.194 11.4505 33.9397 9.94566 33.9397H7.78782V31.9856C7.78782 30.3356 7.63776 29.8247 6.82169 28.6995C4.65181 25.7071 3.6476 20.424 4.5343 16.6673C5.78005 11.3907 9.79397 6.9248 14.9143 5.11899C17.5458 4.19121 21.7296 4.07934 24.4112 4.86502ZM12.5758 10.7286C12.4489 10.8554 12.345 15.1854 12.345 20.3505V29.7418L14.5422 29.6459L16.7395 29.5496L16.8319 26.0538L16.9244 22.5579H20.1574H23.3904L23.4828 26.0538L23.5753 29.5496H25.6911H27.807V20.1189V10.6883H25.6911H23.5753L23.4828 14.1841L23.3904 17.68H20.1574H16.9244L16.8319 14.1841L16.7395 10.6883L14.773 10.5933C13.6914 10.541 12.7028 10.6018 12.5758 10.7286Z" fill="black"/>
</svg>
