<svg width="30" height="40" viewBox="0 0 30 40" fill="none" xmlns="http://www.w3.org/2000/svg">
<path fill-rule="evenodd" clip-rule="evenodd" d="M0.207738 1.49003C-0.172086 4.27325 -0.00807102 10.253 0.512748 12.6213C0.792501 13.8923 1.46678 15.9202 2.01158 17.1274C2.85116 18.9889 2.94804 19.452 2.64878 20.1781C2.45471 20.6489 1.89904 21.9732 1.41403 23.1212C0.666533 24.8903 0.510191 25.7814 0.389338 28.9651C0.188235 34.2506 0.1374 34.1385 3.22203 35.1703L5.80151 36.0331L7.13921 35.3263L8.47691 34.6199L11.0346 35.2464L13.5924 35.8729L13.8782 34.957C14.1087 34.2188 14.7494 33.7454 17.1844 32.5152C20.2211 30.9808 22.5055 29.0881 23.0682 27.6398C23.3211 26.9895 23.1743 26.5727 22.1854 25.1305C20.1412 22.1492 18.0518 20.6656 14.6749 19.7975L12.9629 19.3576L14.3364 18.6537C20.0539 15.724 25.0827 10.9861 27.6158 6.14254C28.8582 3.76651 30.1979 0.354525 29.9757 0.131341C29.74 -0.10533 22.8639 4.62778 20.2054 6.85641C17.0981 9.46172 12.756 13.9903 10.7629 16.7048C9.28707 18.7147 9.17773 18.7934 8.01907 18.6826L6.81246 18.567L6.62606 14.5018C6.39331 9.42671 5.9991 7.51921 4.57572 4.58121C3.56893 2.50319 1.44377 0 0.686355 0C0.534809 0 0.319639 0.670515 0.207738 1.49003ZM16.31 23.4423C17.0879 24.2237 17.1233 24.9648 16.4203 25.7452C15.4138 26.8624 13.4325 26.1719 13.4325 24.7041C13.4325 23.9687 14.5119 22.8001 15.191 22.8001C15.4547 22.8001 15.9583 23.0891 16.31 23.4423ZM0.321558 36.6134C0.0613078 37.1019 0.0782528 37.2981 0.390297 37.4146C2.06785 38.0399 6.52311 39.4801 6.58322 39.4169C6.62415 39.3735 6.70727 39.0604 6.76802 38.7207C6.85978 38.2069 6.39619 37.9272 4.00086 37.0521C2.41826 36.4737 1.02046 35.993 0.894811 35.9834C0.769162 35.9741 0.51115 36.2576 0.321558 36.6134ZM9.46196 37.3292C8.89893 40.1031 8.84394 40.044 11.4637 39.4795C12.7055 39.212 13.4408 39.2438 14.9029 39.6272C15.9257 39.8953 16.8218 40.0553 16.8941 39.9824C16.9667 39.9095 16.928 39.3241 16.8078 38.6812C16.6217 37.6834 16.4874 37.537 15.8902 37.6808C13.3564 38.291 12.873 38.2656 11.2447 37.4368L9.60903 36.6044L9.46196 37.3292Z" fill="black"/>
</svg>
