<svg width="34" height="40" viewBox="0 0 34 40" fill="none" xmlns="http://www.w3.org/2000/svg">
<path fill-rule="evenodd" clip-rule="evenodd" d="M18.497 0.821803C17.9525 1.27917 17.6022 1.80715 17.7185 1.99491C17.8346 2.18268 17.7902 2.24976 17.6196 2.14448C17.4486 2.03921 15.5577 3.71398 13.417 5.86634C10.0726 9.22841 9.59115 9.83952 9.9955 10.2067C10.3979 10.572 11.2124 9.89023 15.5924 5.52356C18.4115 2.7129 20.6229 0.317895 20.5062 0.201707C20.1051 -0.199173 19.4841 -0.00755956 18.497 0.821803ZM21.2715 0.666137C21.5309 0.925153 20.1613 2.48213 16.1931 6.43958L10.7592 11.8587V13.6275C10.7592 14.6003 10.8077 15.3963 10.8669 15.3963C10.926 15.3963 11.9623 14.2409 13.1698 12.8286C14.9492 10.7475 15.5364 10.2609 16.2689 10.2609C17.347 10.2609 18.2865 11.4533 17.94 12.3822C17.8156 12.716 16.997 13.8172 16.1214 14.8295C14.3465 16.8804 14.298 16.45 16.6222 19.2684C17.9599 20.8905 18.1255 21.7703 17.2425 22.5682C16.1243 23.5789 15.3989 23.2204 13.1078 20.5256L10.9199 17.9518L10.7351 20.0236C10.5229 22.4032 10.0871 23.0994 8.80946 23.0994C7.21522 23.0994 6.90216 22.1962 6.90216 17.5984C6.90216 14.6279 6.7932 13.486 6.50039 13.3832C5.92923 13.1833 -0.124057 19.209 0.00193935 19.8522C0.0575448 20.1375 0.114115 20.5076 0.127614 20.6742C0.141435 20.8408 1.53189 19.5771 3.21806 17.8658C4.90422 16.1544 6.35061 14.7544 6.43225 14.7544C6.51389 14.7544 6.58074 15.0295 6.58074 15.3655C6.58074 15.7028 5.30342 17.2714 3.72654 18.8704C1.51036 21.1174 0.783952 21.6804 0.476354 21.3887C-0.147842 20.7968 0.338786 22.2687 1.63443 24.8916C2.599 26.8443 3.63397 28.0422 8.96085 33.3727C12.3727 36.7864 15.4975 39.7027 15.9048 39.8532C17.4357 40.4187 18.5761 39.5762 24.8013 33.2803C31.7797 26.223 32.8937 24.5206 33.7541 19.6003C35.0292 12.3067 31.2577 4.99269 24.4626 1.58055C21.9809 0.334585 20.52 -0.0842692 21.2715 0.666137ZM24.8373 10.6461C25.1073 10.9157 25.223 12.688 25.223 16.5611C25.223 22.4257 25.0575 23.0994 23.6159 23.0994C22.3769 23.0994 22.0089 22.2459 22.0089 19.374C22.0089 16.7877 21.979 16.6734 21.3872 16.9899C20.3587 17.5394 19.4828 17.3686 18.9187 16.5088C18.2409 15.4759 18.4356 15.0526 20.8244 12.3642C22.2663 10.7414 22.894 10.2609 23.5726 10.2609C24.056 10.2609 24.6252 10.4343 24.8373 10.6461Z" fill="black"/>
</svg>
