<svg width="122" height="40" viewBox="0 0 122 40" fill="none" xmlns="http://www.w3.org/2000/svg">
<path fill-rule="evenodd" clip-rule="evenodd" d="M76.5653 0.270224C69.6925 0.881133 58.0222 2.55242 52.8537 3.6666C40.781 6.26903 29.047 9.60591 23.0118 12.1538L21.7408 12.6904L23.111 13.2653C24.5553 13.8709 25.2974 14.8513 25.2974 16.1531C25.2974 16.8284 25.0638 16.9361 23.5988 16.9361C22.1836 16.9361 21.9001 16.8163 21.9001 16.2187C21.9001 15.2947 20.7846 14.8619 20.1206 15.5285C19.3241 16.3282 19.9024 17.1801 22.0779 18.4129C25.4647 20.3317 26.417 22.3543 25.12 24.8722C23.8611 27.317 18.3808 27.447 16.829 25.0689C16.504 24.5709 16.2378 23.6458 16.2378 23.0129C16.2378 21.9025 16.2963 21.8627 17.9365 21.8627C19.3626 21.8627 19.6352 21.9802 19.6352 22.5938C19.6352 23.7739 20.6778 24.5906 21.5717 24.1101C22.8796 23.4074 22.2847 22.2122 19.9447 20.8418C17.1804 19.2228 16.131 17.9017 16.3201 16.277C16.399 15.5975 16.3703 15.0412 16.2563 15.0412C15.6663 15.0412 8.40769 19.3467 6.0907 21.0714C-0.391823 25.8962 -1.77945 30.6997 2.31134 34.1552C4.89219 36.3354 9.063 37.8676 15.9015 39.1467C20.261 39.9622 36.554 40.2848 44.1716 39.7061C61.9024 38.3592 81.9045 34.1404 96.8305 28.5998C101.229 26.9668 102.251 26.4105 100.851 26.4105C99.2487 26.4105 97.8324 25.3554 97.4164 23.8516C96.7724 21.5239 96.9211 16.5673 97.6806 15.0412C98.9369 12.5157 103.227 12.1193 105.424 14.3257C106.199 15.1037 106.473 15.7105 106.387 16.4586C106.279 17.4041 106.124 17.5045 104.775 17.5045C103.493 17.5045 103.25 17.3704 103.061 16.5571C102.811 15.4876 101.276 15.0253 100.748 15.8609C100.572 16.1395 100.426 17.924 100.422 19.8269C100.418 22.5256 100.548 23.3953 101.015 23.7842C101.874 24.5 102.843 23.7705 102.988 22.2982C103.076 21.4178 102.952 21.1048 102.517 21.1048C102.113 21.1048 101.927 20.7463 101.927 19.9679V18.8309H104.233H106.539L106.396 21.6733C106.317 23.2365 106.327 24.5156 106.418 24.5156C107.023 24.5156 113.541 20.6398 115.784 18.9461C126.681 10.7197 123.092 3.87011 106.268 0.786389C102.324 0.0633037 82.7262 -0.277016 76.5653 0.270224ZM65.9652 13.7561C66.8795 14.3378 67.4151 15.8215 67.0531 16.7689C66.8908 17.193 66.4242 17.3275 65.4081 17.2434C64.2681 17.1487 63.9657 16.958 63.8687 16.2729C63.7811 15.6525 63.4953 15.4202 62.8189 15.4202C61.765 15.4202 61.2455 16.318 61.8657 17.0679C62.0937 17.3438 63.0382 17.9608 63.9646 18.4391C66.5258 19.7617 67.3868 20.8668 67.3868 22.8322C67.3868 24.1427 67.1664 24.7198 66.3536 25.5358C65.4669 26.4256 65.0057 26.5749 63.1096 26.5867C59.7696 26.6068 58.1385 25.3618 58.1385 22.7924C58.1385 21.9473 58.2883 21.8627 59.79 21.8627C61.3229 21.8627 61.4577 21.9442 61.6679 22.9997C61.8461 23.8941 62.093 24.1366 62.8253 24.1366C65.0245 24.1366 64.4368 22.2955 61.7521 20.7743C58.2657 18.7991 57.2774 16.6215 58.9172 14.5284C60.2686 12.8033 63.8521 12.4107 65.9652 13.7561ZM36.7605 18.3572C37.298 21.2234 37.7838 24.165 37.8404 24.8946C37.9375 26.1486 37.8737 26.2278 36.6684 26.3434C35.967 26.4105 35.2026 26.2748 34.9697 26.0413C34.7364 25.8083 34.1909 23.2805 33.7572 20.4242C32.889 14.7077 32.8818 14.7122 31.8336 21.6733L31.1484 26.221H29.4497C28.1731 26.221 27.7613 26.0796 27.7922 25.6525C27.8685 24.6046 29.9042 13.7182 30.0779 13.4305C30.1722 13.274 31.4946 13.1463 33.0162 13.1463H35.7835L36.7605 18.3572ZM46.2353 13.5052C46.3568 13.7026 46.7392 15.7548 47.085 18.0654C47.4308 20.376 47.8298 22.0481 47.9717 21.7805C48.1137 21.513 48.4322 19.8447 48.6799 18.073C49.422 12.7624 49.1555 13.1463 52.101 13.1463H54.6637L54.9257 18.1677C55.0695 20.9297 55.1296 23.8713 55.0586 24.7051C54.9318 26.1994 54.9084 26.221 53.4199 26.221H51.91L51.705 20.9153C51.5922 17.9972 51.4649 15.7931 51.4219 16.017C51.3789 16.241 50.998 18.3728 50.5756 20.7542C49.5198 26.7042 49.6583 26.4105 47.9091 26.4105C46.9582 26.4105 46.3372 26.2126 46.2051 25.8674C46.0911 25.5688 45.6034 23.2236 45.1213 20.6565L44.2452 15.9886L44.1138 21.1048L43.9829 26.221L42.3786 26.3373L40.7742 26.454V20.0528C40.7742 16.5321 40.8875 13.5378 41.026 13.3991C41.4156 13.0076 45.9865 13.1008 46.2353 13.5052ZM73.6153 18.0419C73.6153 20.7345 73.7183 23.2073 73.8444 23.5371C73.9705 23.8668 74.462 24.1366 74.9365 24.1366C75.411 24.1366 75.9025 23.8668 76.0285 23.5371C76.1546 23.2073 76.2577 20.7247 76.2577 18.0203V13.1027L77.862 13.2194L79.4663 13.3358V18.9154C79.4663 24.0786 79.407 24.5542 78.6736 25.291C76.9368 27.0335 72.7222 27.0032 71.1273 25.2364C70.5086 24.5512 70.3893 23.7171 70.2825 19.3331C70.2142 16.5253 70.2515 13.9842 70.3652 13.6871C70.4969 13.3426 71.1239 13.1463 72.0937 13.1463H73.6153V18.0419ZM88.2114 14.6622C88.4693 15.3917 89.0951 17.3529 89.6025 19.0204L90.525 22.0522L90.5635 17.5777L90.602 13.1027L92.2063 13.2194L93.8107 13.3358L93.9141 19.6836L94.0175 26.0315H91.6201H89.2227L87.6856 21.1995L86.1485 16.3676L86.1104 21.1995L86.0722 26.0315H84.5623H83.0524V19.5707V13.1103L85.3973 13.2229C87.7015 13.3339 87.7509 13.3593 88.2114 14.6622Z" fill="black"/>
</svg>
